<?xml version="1.0" encoding="UTF-8" standalone="no"?>
<!-- Created with Inkscape (http://www.inkscape.org/) -->

<svg
   xmlns:dc="http://purl.org/dc/elements/1.1/"
   xmlns:cc="http://creativecommons.org/ns#"
   xmlns:rdf="http://www.w3.org/1999/02/22-rdf-syntax-ns#"
   xmlns:svg="http://www.w3.org/2000/svg"
   xmlns="http://www.w3.org/2000/svg"
   xmlns:sodipodi="http://sodipodi.sourceforge.net/DTD/sodipodi-0.dtd"
   xmlns:inkscape="http://www.inkscape.org/namespaces/inkscape"
   width="960"
   height="350"
   id="svg3008"
   version="1.1"
   inkscape:version="0.48.4 r9939"
   sodipodi:docname="New document 4">
  <defs
     id="defs3010" />
  <sodipodi:namedview
     id="base"
     pagecolor="#e74c3c"
     bordercolor="#666666"
     borderopacity="1.0"
     inkscape:pageopacity="1"
     inkscape:pageshadow="2"
     inkscape:zoom="0.90509668"
     inkscape:cx="394.84855"
     inkscape:cy="137.4035"
     inkscape:document-units="px"
     inkscape:current-layer="svg3008"
     showgrid="false"
     inkscape:window-width="1427"
     inkscape:window-height="654"
     inkscape:window-x="110"
     inkscape:window-y="148"
     inkscape:window-maximized="0" />
  <metadata
     id="metadata3013">
    <rdf:RDF>
      <cc:Work
         rdf:about="">
        <dc:format>image/svg+xml</dc:format>
        <dc:type
           rdf:resource="http://purl.org/dc/dcmitype/StillImage" />
        <dc:title></dc:title>
      </cc:Work>
    </rdf:RDF>
  </metadata>
  <path
     style="fill:#000000"
     d="m 160.67132,332.04676 c -17.42447,-1.70995 -36.52504,-9.0069 -51.5,-19.67444 C 91.8287,300.01817 74.42776,278.96758 61.90875,255.19698 56.44554,244.82363 45.17132,217.59416 45.17132,214.77276 c 0,-2.35397 -1.25356,-2.51371 -7.05486,-0.899 -6.7876,1.88923 -12.31696,0.69408 -17.38802,-3.75837 -4.5919,-4.03175 -5.2213,-7.50132 -2.50584,-13.81357 2.87503,-6.6832 9.17197,-12.31517 19.18092,-17.15538 13.17093,-6.36932 21.70449,-5.12949 25.38898,3.68872 2.1365,5.11338 1.67132,7.82489 -2.12118,12.36422 -1.925,2.30407 -3.5,4.58099 -3.5,5.05982 0,1.555 6.04026,7.80123 12.34289,12.76376 30.32867,23.88007 70.65076,44.02614 97.48296,48.70528 18.52104,3.2298 39.19616,0.95866 63.9678,-7.02681 13.40477,-4.32121 34.66783,-12.98516 43.70635,-17.80882 8.72856,-4.65823 22.15655,-12.73547 24.91025,-14.98408 l 2.91025,-2.37644 -1.80111,-5.00873 c -5.93905,-16.51595 10.22041,-25.07939 26.06627,-13.8134 12.63898,8.98599 16.61964,27.57187 7.21545,33.6893 -7.10748,4.62341 -13.04354,4.36432 -17.87665,-0.78029 -1.2502,-1.33077 -2.75993,-2.41959 -3.35495,-2.41959 -0.59503,0 -3.07222,3.37621 -5.50487,7.5027 -11.38838,19.31799 -37.23938,48.53763 -55.41402,62.635 -23.62027,18.32134 -45.95271,28.21078 -69.43984,30.74994 -5.65907,0.6118 -10.83407,1.05174 -11.5,0.97766 -0.66593,-0.0741 -5.26078,-0.53215 -10.21078,-1.01792 z m 14,-128.77609 c -4.4475,-1.07332 -6.88339,-2.60498 -10.26129,-6.4522 -3.95081,-4.49971 -4.82402,-9.78581 -2.87393,-17.39772 3.04385,-11.88134 9.88052,-19.99794 18.84051,-22.36777 4.22292,-1.11691 4.91491,-1.05479 6.75,0.60594 2.72051,2.46203 2.57898,5.42774 -0.45529,9.54046 -3.13506,4.24933 -3.12183,5.07793 0.12888,8.07569 8.46947,7.81042 6.815,22.54776 -3.03342,27.02043 -4.45001,2.02098 -4.66599,2.04413 -9.09546,0.97517 z m 76.19799,-42.51523 c -5.54378,-1.97742 -11.15336,-6.16266 -14.25089,-10.6324 -3.61112,-5.21084 -4.4367,-14.98197 -1.98545,-23.49862 2.52243,-8.76396 9.44782,-21.18171 13.6863,-24.54056 8.24633,-6.534952 19.61587,-9.012912 23.19706,-5.055735 2.88895,3.192245 2.11747,8.813025 -1.84501,13.442285 -1.925,2.24893 -3.5,4.81969 -3.5,5.7128 0,0.89311 1.61443,3.17461 3.58763,5.07 12.90546,12.3966 9.99625,34.15188 -5.26218,39.35095 -5.62441,1.91642 -8.58664,1.94931 -13.62746,0.15128 z M 88.00445,147.28682 c -13.46232,-6.72907 -18.20429,-17.29138 -14.36683,-32.00086 2.04323,-7.832 7.43771,-18.768718 11.59049,-23.49847 3.73445,-4.253316 11.77961,-8.340626 18.11365,-9.202576 4.13575,-0.56281 4.96575,-0.34025 7.25,1.944 3.96478,3.96479 3.36187,7.396001 -2.57393,14.648314 -1.56558,1.912812 -2.84651,3.922362 -2.84651,4.465652 0,0.54329 1.98371,3.02826 4.40825,5.52215 11.68693,12.02123 9.66114,32.00976 -3.86688,38.15469 -5.16138,2.34449 -12.98106,2.32996 -17.70824,-0.0329 z m 220.1498,-68.413446 c -1.38438,-0.72253 -5.65938,-3.13991 -9.5,-5.37195 -19.35429,-11.24811 -26.67966,-13.66551 -41.65162,-13.74523 -9.95074,-0.053 -10.85108,-0.22505 -13.37888,-2.55681 -3.63305,-3.3513 -5.45321,-7.93382 -5.44869,-13.71788 0.005,-5.79857 2.85136,-10.95667 6.56102,-11.88773 6.54788,-1.64341 26.16168,2.65282 34.93524,7.65226 11.09255,6.32088 32.67803,26.04743 36.47625,33.33494 1.40511,2.69594 1.34219,2.94775 -1.30576,5.22542 -3.23189,2.77995 -3.36482,2.80116 -6.68756,1.06698 z M 60.57102,58.447614 c -0.60516,-0.41153 -1.63985,-1.7726 -2.2993,-3.02462 -1.01054,-1.91857 -0.86662,-2.74318 0.91559,-5.24606 4.49653,-6.3148 27.47739,-20.29059 41.24423,-25.08264 7.25114,-2.52402 9.65344,-2.86976 20.0219,-2.88153 17.25156,-0.0196 20.71788,2.00346 20.71788,12.09156 0,4.26393 -2.62526,10.34434 -5.64542,13.07546 -4.12377,3.7291 -7.09339,4.02391 -17.14231,1.70182 -8.61303,-1.9903 -10.20708,-2.07922 -17.59176,-0.98137 -8.56489,1.27331 -21.64664,4.89548 -28.88295,7.99732 -5.56404,2.38503 -9.94966,3.29406 -11.33786,2.35006 z"
     id="path3092"
     inkscape:connector-curvature="0" />
</svg>
